<svg width="177" height="45" viewBox="0 0 177 45" fill="none" xmlns="http://www.w3.org/2000/svg">
<path d="M119.794 14.9679L120.509 14.7854C120.608 15.2339 121.071 15.6217 121.74 15.6217C122.44 15.6217 122.866 15.2719 122.866 14.8082C122.866 14.3825 122.516 14.1316 122.082 13.9719L121.284 13.6983C120.235 13.3561 120.053 12.7404 120.053 12.2766C120.053 11.3643 120.858 10.8094 121.763 10.8094C122.713 10.8094 123.344 11.3339 123.504 12.0713L122.82 12.2766C122.691 11.7368 122.311 11.4936 121.763 11.4936C121.254 11.4936 120.82 11.7749 120.82 12.2614C120.82 12.4971 120.889 12.7784 121.512 13.0216L122.318 13.3257C123.192 13.5918 123.611 14.2 123.611 14.755C123.611 15.6977 122.873 16.2983 121.756 16.2983C120.699 16.2983 119.977 15.7053 119.794 14.9679Z" fill="#263A7E"/>
<path d="M128.081 15.5912V16.2146H124.698V10.893H128.081V11.5164H125.459V13.2953H127.747V13.9187H125.459V15.5912H128.081Z" fill="#263A7E"/>
<path d="M128.713 13.5538C128.713 12.0713 129.777 10.8094 131.587 10.8094C132.37 10.8094 132.887 11.0374 133.343 11.3795L133.046 11.9497C132.689 11.6836 132.134 11.4936 131.587 11.4936C130.256 11.4936 129.488 12.4287 129.488 13.5538C129.488 14.679 130.256 15.6141 131.587 15.6141C132.134 15.6141 132.689 15.424 133.046 15.1579L133.343 15.7281C132.887 16.0702 132.37 16.2983 131.587 16.2983C129.777 16.2983 128.713 15.0363 128.713 13.5538Z" fill="#263A7E"/>
<path d="M135.05 16.2146H134.29V10.893H136.51C137.529 10.893 138.114 11.676 138.114 12.5655C138.114 13.3638 137.658 14.0023 136.86 14.1696C136.921 14.7474 137.278 15.6521 137.871 15.6521C138.137 15.6521 138.35 15.5532 138.494 15.4088L138.76 15.9257C138.509 16.1918 138.167 16.2983 137.825 16.2983C136.578 16.2983 136.198 14.8462 136.138 14.2H135.05V16.2146ZM135.05 13.5918H136.35C136.959 13.5918 137.324 13.1661 137.324 12.5579C137.324 11.9421 136.959 11.5164 136.35 11.5164H135.05V13.5918Z" fill="#263A7E"/>
<path d="M142.885 15.5912V16.2146H139.502V10.893H142.885V11.5164H140.262V13.2953H142.551V13.9187H140.262V15.5912H142.885Z" fill="#263A7E"/>
<path d="M143.393 10.893H147.696V11.5164H145.925V16.2146H145.164V11.5164H143.393V10.893Z" fill="#263A7E"/>
<path d="M148.778 14.4965H150.922L149.843 11.6228L148.778 14.4965ZM151.15 15.1123H148.55L148.14 16.2146H147.357L149.402 10.893H150.284L152.336 16.2146H151.568L151.15 15.1123Z" fill="#263A7E"/>
<path d="M153.93 16.2146H153.17V10.893H155.39C156.408 10.893 156.994 11.676 156.994 12.5655C156.994 13.3638 156.538 14.0023 155.739 14.1696C155.8 14.7474 156.158 15.6521 156.751 15.6521C157.017 15.6521 157.23 15.5532 157.374 15.4088L157.64 15.9257C157.389 16.1918 157.047 16.2983 156.705 16.2983C155.458 16.2983 155.078 14.8462 155.017 14.2H153.93V16.2146ZM153.93 13.5918H155.23C155.838 13.5918 156.203 13.1661 156.203 12.5579C156.203 11.9421 155.838 11.5164 155.23 11.5164H153.93V13.5918Z" fill="#263A7E"/>
<path d="M159.142 10.893V16.2146H158.382V10.893H159.142Z" fill="#263A7E"/>
<path d="M161.407 14.4965H163.551L162.471 11.6228L161.407 14.4965ZM163.779 15.1123H161.179L160.768 16.2146H159.985L162.03 10.893H162.912L164.965 16.2146H164.197L163.779 15.1123Z" fill="#263A7E"/>
<path d="M122.896 24.9352L121.185 20.8071L120.82 25.0036H120.053L120.554 19.682H121.406L123.177 23.9241L124.949 19.682H125.8L126.302 25.0036H125.534L125.169 20.8071L123.458 24.9352H122.896Z" fill="#263A7E"/>
<path d="M130.932 19.682H131.692V23.0346C131.692 24.3726 130.727 25.0873 129.586 25.0873C128.446 25.0873 127.481 24.3726 127.481 23.0346V19.682H128.241V23.0346C128.241 23.9545 128.864 24.4031 129.586 24.4031C130.309 24.4031 130.932 23.9545 130.932 23.0346V19.682Z" fill="#263A7E"/>
<path d="M136.789 25.0036L133.87 21.0656V25.0036H133.11V19.682H133.672L136.584 23.6048V19.682H137.352V25.0036H136.789Z" fill="#263A7E"/>
<path d="M139.602 19.682V25.0036H138.841V19.682H139.602Z" fill="#263A7E"/>
<path d="M140.696 22.3428C140.696 20.8603 141.76 19.5984 143.569 19.5984C144.352 19.5984 144.869 19.8264 145.325 20.1685L145.029 20.7387C144.672 20.4726 144.117 20.2826 143.569 20.2826C142.239 20.2826 141.471 21.2177 141.471 22.3428C141.471 23.468 142.239 24.4031 143.569 24.4031C144.117 24.4031 144.672 24.213 145.029 23.9469L145.325 24.5171C144.869 24.8592 144.352 25.0873 143.569 25.0873C141.76 25.0873 140.696 23.8253 140.696 22.3428Z" fill="#263A7E"/>
<path d="M147.041 19.682V25.0036H146.28V19.682H147.041Z" fill="#263A7E"/>
<path d="M149.29 25.0036H148.53V19.682H150.659C151.677 19.682 152.263 20.465 152.263 21.3545C152.263 22.244 151.662 22.989 150.659 22.989H149.29V25.0036ZM149.29 22.3808H150.499C151.107 22.3808 151.472 21.9551 151.472 21.3469C151.472 20.7311 151.107 20.3054 150.499 20.3054H149.29V22.3808Z" fill="#263A7E"/>
<path d="M153.649 23.2855H155.792L154.713 20.4118L153.649 23.2855ZM156.02 23.9013H153.42L153.01 25.0036H152.227L154.272 19.682H155.154L157.206 25.0036H156.439L156.02 23.9013Z" fill="#263A7E"/>
<path d="M161.241 24.3802V25.0036H158.048V19.682H158.808V24.3802H161.241Z" fill="#263A7E"/>
<path d="M167.547 22.3428C167.547 21.2177 166.802 20.3054 165.586 20.3054H164.651V24.3802H165.586C166.802 24.3802 167.547 23.468 167.547 22.3428ZM168.323 22.3428C168.323 23.8101 167.296 25.0036 165.586 25.0036H163.891V19.682H165.586C167.296 19.682 168.323 20.8756 168.323 22.3428Z" fill="#263A7E"/>
<path d="M172.805 24.3802V25.0036H169.422V19.682H172.805V20.3054H170.182V22.0843H172.47V22.7077H170.182V24.3802H172.805Z" fill="#263A7E"/>
<path d="M119.733 32.2722L120.874 32.0289C121.003 32.5231 121.322 32.7663 121.832 32.7663C122.227 32.7663 122.561 32.6219 122.561 32.2874C122.561 32.1125 122.47 31.9301 122.014 31.778L121.421 31.5652C120.615 31.2839 119.969 30.7213 119.969 29.9915C119.969 29.0184 120.782 28.3874 121.877 28.3874C122.767 28.3874 123.405 28.8207 123.717 29.6418L122.637 30.0751C122.455 29.6189 122.181 29.4973 121.885 29.4973C121.558 29.4973 121.299 29.6265 121.299 29.9306C121.299 30.0827 121.368 30.2651 121.816 30.4324L122.387 30.6301C123.588 31.0178 123.861 31.6564 123.884 32.2494C123.884 33.3745 122.888 33.8763 121.854 33.8763C120.76 33.8763 119.855 33.2909 119.733 32.2722Z" fill="#263A7E"/>
<path d="M125.411 33.7927H124.02L126.08 28.471H127.335L129.426 33.7927H128.011L127.647 32.85H125.761L125.411 33.7927ZM126.711 29.9002L126.05 31.7704H127.342L126.711 29.9002Z" fill="#263A7E"/>
<path d="M132.888 28.471H134.234V31.7628C134.234 33.1388 133.207 33.8763 131.991 33.8763C130.775 33.8763 129.756 33.1388 129.756 31.7628V28.471H131.101V31.7628C131.101 32.409 131.512 32.7359 131.991 32.7359C132.47 32.7359 132.888 32.409 132.888 31.7628V28.471ZM131.961 26.9353H133.268L132.234 28.0833H131.345L131.961 26.9353Z" fill="#263A7E"/>
<path d="M137.599 33.7927H135.296V28.471H137.599C139.127 28.471 140.275 29.6646 140.275 31.1318C140.275 32.6067 139.127 33.7927 137.599 33.7927ZM136.641 29.5809V32.6827H137.348C138.352 32.6827 138.922 32.0137 138.922 31.1318C138.922 30.2499 138.352 29.5809 137.348 29.5809H136.641Z" fill="#263A7E"/>
<path d="M144.758 33.7927H141.094V28.471H144.758V29.5809H142.44V30.6377H144.454V31.6868H142.44V32.6827H144.758V33.7927Z" fill="#263A7E"/>
<path d="M0 2.07729H112.73V42.9564H0V2.07729Z" fill="#FCD82E"/>
<path d="M0 45H112.73V42.9564H0V45Z" fill="#24509A"/>
<path d="M0 2.07729H112.73V0.0336667H0V2.07729Z" fill="#2FA3D9"/>
<path d="M7.11708 26.65L11.8867 25.6325C12.4272 27.6993 13.7627 28.7169 15.8931 28.7169C17.5465 28.7169 18.9456 28.1127 18.9456 26.7136C18.9456 25.9823 18.564 25.2192 16.6562 24.5832L14.176 23.6929C10.8055 22.5164 8.10279 20.1634 8.10279 17.1109C8.10279 13.0409 11.5051 10.4017 16.0839 10.4017C19.8041 10.4017 22.4751 12.2141 23.7788 15.6482L19.2636 17.4607C18.5005 15.5528 17.3558 15.0441 16.1157 15.0441C14.7484 15.0441 13.6673 15.5846 13.6673 16.8565C13.6673 17.4925 13.9535 18.2556 15.8295 18.9551L18.2143 19.7819C23.2382 21.4035 24.3829 24.0745 24.4783 26.5546C24.4783 31.2606 20.3129 33.3592 15.9885 33.3592C11.4097 33.3592 7.62584 30.9109 7.11708 26.65Z" fill="#24509A"/>
<path d="M42.2996 33.0095H26.9734V10.7515H42.2996V15.3939H32.6015V19.8137H41.0277V24.2017H32.6015V28.3671H42.2996V33.0095Z" fill="#24509A"/>
<path d="M43.5273 26.65L48.2969 25.6325C48.8374 27.6993 50.1729 28.7169 52.3033 28.7169C53.9567 28.7169 55.3558 28.1127 55.3558 26.7136C55.3558 25.9823 54.9742 25.2192 53.0664 24.5832L50.5862 23.6929C47.2158 22.5164 44.513 20.1634 44.513 17.1109C44.513 13.0409 47.9153 10.4017 52.4941 10.4017C56.2143 10.4017 58.8853 12.2141 60.189 15.6482L55.6738 17.4607C54.9107 15.5528 53.766 15.0441 52.5259 15.0441C51.1586 15.0441 50.0775 15.5846 50.0775 16.8565C50.0775 17.4925 50.3637 18.2556 52.2397 18.9551L54.6245 19.7819C59.6484 21.4035 60.7931 24.0745 60.8885 26.5546C60.8885 31.2606 56.7231 33.3592 52.3987 33.3592C47.8199 33.3592 44.036 30.9109 43.5273 26.65Z" fill="#24509A"/>
<path d="M66.3223 33.0095H60.5035L69.1205 10.7515H74.367L83.1112 33.0095H77.197L75.6707 29.0666H67.785L66.3223 33.0095ZM71.7597 16.7293L68.9933 24.5514H74.3988L71.7597 16.7293Z" fill="#24509A"/>
<path d="M94.111 33.0095H84.4765V10.7515H94.111C100.502 10.7515 105.304 15.7436 105.304 21.8805C105.304 28.0491 100.502 33.0095 94.111 33.0095ZM90.1046 15.3939V28.3671H93.0617C97.259 28.3671 99.6437 25.5689 99.6437 21.8805C99.6437 18.192 97.259 15.3939 93.0617 15.3939H90.1046Z" fill="#24509A"/>
<path d="M112.73 2.04362H176.376V0H112.73V2.04362Z" fill="#2FA3D9"/>
<path d="M112.73 44.9662H176.376V42.9226H112.73V44.9662Z" fill="#2FA3D9"/>
<path fill-rule="evenodd" clip-rule="evenodd" d="M112.73 2.07729V42.9226H176.376V2.04362H112.73V2.07729ZM120.509 14.7854L119.794 14.9679C119.977 15.7053 120.699 16.2983 121.756 16.2983C122.873 16.2983 123.611 15.6977 123.611 14.755C123.611 14.2 123.192 13.5918 122.318 13.3257L121.512 13.0216C120.889 12.7784 120.82 12.4971 120.82 12.2614C120.82 11.7749 121.254 11.4936 121.763 11.4936C122.311 11.4936 122.691 11.7368 122.82 12.2766L123.504 12.0713C123.344 11.3339 122.713 10.8094 121.763 10.8094C120.858 10.8094 120.053 11.3643 120.053 12.2766C120.053 12.7404 120.235 13.3561 121.284 13.6983L122.082 13.9719C122.516 14.1316 122.866 14.3825 122.866 14.8082C122.866 15.2719 122.44 15.6217 121.74 15.6217C121.071 15.6217 120.608 15.2339 120.509 14.7854ZM128.081 16.2146V15.5912H125.459V13.9187H127.747V13.2953H125.459V11.5164H128.081V10.893H124.698V16.2146H128.081ZM131.587 10.8094C129.777 10.8094 128.713 12.0713 128.713 13.5538C128.713 15.0363 129.777 16.2983 131.587 16.2983C132.37 16.2983 132.887 16.0702 133.343 15.7281L133.046 15.1579C132.689 15.424 132.134 15.6141 131.587 15.6141C130.256 15.6141 129.488 14.679 129.488 13.5538C129.488 12.4287 130.256 11.4936 131.587 11.4936C132.134 11.4936 132.689 11.6836 133.046 11.9497L133.343 11.3795C132.887 11.0374 132.37 10.8094 131.587 10.8094ZM134.29 16.2146H135.05V14.2H136.138C136.198 14.8462 136.578 16.2983 137.825 16.2983C138.167 16.2983 138.509 16.1918 138.76 15.9257L138.494 15.4088C138.35 15.5532 138.137 15.6521 137.871 15.6521C137.278 15.6521 136.921 14.7474 136.86 14.1696C137.658 14.0023 138.114 13.3638 138.114 12.5655C138.114 11.676 137.529 10.893 136.51 10.893H134.29V16.2146ZM142.885 16.2146V15.5912H140.262V13.9187H142.551V13.2953H140.262V11.5164H142.885V10.893H139.502V16.2146H142.885ZM147.696 10.893H143.393V11.5164H145.164V16.2146H145.925V11.5164H147.696V10.893ZM148.55 15.1123H151.15L151.568 16.2146H152.336L150.284 10.893H149.402L147.357 16.2146H148.14L148.55 15.1123ZM153.17 16.2146H153.93V14.2H155.017C155.078 14.8462 155.458 16.2983 156.705 16.2983C157.047 16.2983 157.389 16.1918 157.64 15.9257L157.374 15.4088C157.23 15.5532 157.017 15.6521 156.751 15.6521C156.158 15.6521 155.8 14.7474 155.739 14.1696C156.538 14.0023 156.994 13.3638 156.994 12.5655C156.994 11.676 156.408 10.893 155.39 10.893H153.17V16.2146ZM159.142 16.2146V10.893H158.382V16.2146H159.142ZM161.179 15.1123H163.779L164.197 16.2146H164.965L162.912 10.893H162.03L159.985 16.2146H160.768L161.179 15.1123ZM121.185 20.8071L122.896 24.9352H123.458L125.169 20.8071L125.534 25.0036H126.302L125.8 19.682H124.949L123.177 23.9241L121.406 19.682H120.554L120.053 25.0036H120.82L121.185 20.8071ZM131.692 19.682H130.932V23.0346C130.932 23.9545 130.309 24.4031 129.586 24.4031C128.864 24.4031 128.241 23.9545 128.241 23.0346V19.682H127.481V23.0346C127.481 24.3726 128.446 25.0873 129.586 25.0873C130.727 25.0873 131.692 24.3726 131.692 23.0346V19.682ZM133.87 21.0656L136.789 25.0036H137.352V19.682H136.584V23.6048L133.672 19.682H133.11V25.0036H133.87V21.0656ZM139.602 25.0036V19.682H138.841V25.0036H139.602ZM143.569 19.5984C141.76 19.5984 140.696 20.8603 140.696 22.3428C140.696 23.8253 141.76 25.0873 143.569 25.0873C144.352 25.0873 144.869 24.8592 145.325 24.5171L145.029 23.9469C144.672 24.213 144.117 24.4031 143.569 24.4031C142.239 24.4031 141.471 23.468 141.471 22.3428C141.471 21.2177 142.239 20.2826 143.569 20.2826C144.117 20.2826 144.672 20.4726 145.029 20.7387L145.325 20.1685C144.869 19.8264 144.352 19.5984 143.569 19.5984ZM147.041 25.0036V19.682H146.28V25.0036H147.041ZM148.53 25.0036H149.29V22.989H150.659C151.662 22.989 152.263 22.244 152.263 21.3545C152.263 20.465 151.677 19.682 150.659 19.682H148.53V25.0036ZM153.42 23.9013H156.02L156.439 25.0036H157.206L155.154 19.682H154.272L152.227 25.0036H153.01L153.42 23.9013ZM161.241 25.0036V24.3802H158.808V19.682H158.048V25.0036H161.241ZM165.586 25.0036C167.296 25.0036 168.323 23.8101 168.323 22.3428C168.323 20.8756 167.296 19.682 165.586 19.682H163.891V25.0036H165.586ZM172.805 25.0036V24.3802H170.182V22.7077H172.47V22.0843H170.182V20.3054H172.805V19.682H169.422V25.0036H172.805ZM120.874 32.0289L119.733 32.2722C119.855 33.2909 120.76 33.8763 121.854 33.8763C122.888 33.8763 123.884 33.3745 123.884 32.2494C123.861 31.6564 123.588 31.0178 122.387 30.6301L121.816 30.4324C121.368 30.2651 121.299 30.0827 121.299 29.9306C121.299 29.6265 121.558 29.4973 121.885 29.4973C122.181 29.4973 122.455 29.6189 122.637 30.0751L123.717 29.6418C123.405 28.8207 122.767 28.3874 121.877 28.3874C120.782 28.3874 119.969 29.0184 119.969 29.9915C119.969 30.7213 120.615 31.2839 121.421 31.5652L122.014 31.778C122.47 31.9301 122.561 32.1125 122.561 32.2874C122.561 32.6219 122.227 32.7663 121.832 32.7663C121.322 32.7663 121.003 32.5231 120.874 32.0289ZM124.02 33.7927H125.411L125.761 32.85H127.647L128.011 33.7927H129.426L127.335 28.471H126.08L124.02 33.7927ZM134.234 28.471H132.888V31.7628C132.888 32.409 132.47 32.7359 131.991 32.7359C131.512 32.7359 131.101 32.409 131.101 31.7628V28.471H129.756V31.7628C129.756 33.1388 130.775 33.8763 131.991 33.8763C133.207 33.8763 134.234 33.1388 134.234 31.7628V28.471ZM133.268 26.9353H131.961L131.345 28.0833H132.234L133.268 26.9353ZM135.296 33.7927H137.599C139.127 33.7927 140.275 32.6067 140.275 31.1318C140.275 29.6646 139.127 28.471 137.599 28.471H135.296V33.7927ZM141.094 33.7927H144.758V32.6827H142.44V31.6868H144.454V30.6377H142.44V29.5809H144.758V28.471H141.094V33.7927Z" fill="white"/>
<path d="M135.05 13.5918H136.35C136.959 13.5918 137.324 13.1661 137.324 12.5579C137.324 11.9421 136.959 11.5164 136.35 11.5164H135.05V13.5918Z" fill="white"/>
<path d="M148.778 14.4965H150.922L149.843 11.6228L148.778 14.4965Z" fill="white"/>
<path d="M153.93 13.5918H155.23C155.838 13.5918 156.203 13.1661 156.203 12.5579C156.203 11.9421 155.838 11.5164 155.23 11.5164H153.93V13.5918Z" fill="white"/>
<path d="M161.407 14.4965H163.551L162.471 11.6228L161.407 14.4965Z" fill="white"/>
<path d="M149.29 22.3808H150.499C151.107 22.3808 151.472 21.9551 151.472 21.3469C151.472 20.7311 151.107 20.3054 150.499 20.3054H149.29V22.3808Z" fill="white"/>
<path d="M153.649 23.2855H155.792L154.713 20.4118L153.649 23.2855Z" fill="white"/>
<path d="M167.547 22.3428C167.547 21.2177 166.802 20.3054 165.586 20.3054H164.651V24.3802H165.586C166.802 24.3802 167.547 23.468 167.547 22.3428Z" fill="white"/>
<path d="M126.711 29.9002L126.05 31.7704H127.342L126.711 29.9002Z" fill="white"/>
<path d="M136.641 29.5809V32.6827H137.348C138.352 32.6827 138.922 32.0137 138.922 31.1318C138.922 30.2499 138.352 29.5809 137.348 29.5809H136.641Z" fill="white"/>
</svg>
