<svg width="132" height="65" viewBox="0 0 132 65" fill="none" xmlns="http://www.w3.org/2000/svg">
<path fill-rule="evenodd" clip-rule="evenodd" d="M105.497 40.9575C105.47 40.8906 105.511 40.8156 105.582 40.8036L112.71 39.6003C112.779 39.5887 112.842 39.6417 112.842 39.7115V49.5681C112.842 49.6303 112.892 49.6808 112.954 49.6808H118.762C118.824 49.6808 118.875 49.6303 118.875 49.5681V38.6546C118.875 38.5996 118.915 38.5527 118.969 38.5434L129.946 36.6715C130 36.6622 130.04 36.6153 130.04 36.5603V30.789C130.04 30.7185 129.976 30.6654 129.906 30.678L53.3332 44.6455C53.2796 44.6553 53.2406 44.702 53.2406 44.7565V49.6291C53.2406 49.6896 53.2855 49.7391 53.3458 49.7414C54.3005 49.778 61.541 50.0261 66.3788 49.3425C71.2331 48.6566 73.4212 46.4894 73.6823 46.2138C73.7 46.195 73.7229 46.1825 73.7484 46.1782L80.3258 45.0677C80.4115 45.0533 80.4806 45.137 80.4502 45.2184L78.8407 49.5286C78.8132 49.6023 78.8677 49.6808 78.9464 49.6808H85.0238C85.0694 49.6808 85.1106 49.6533 85.128 49.6111L86.8413 45.4651C86.8587 45.4229 86.8999 45.3954 86.9455 45.3954H100.604C100.65 45.3954 100.691 45.4228 100.708 45.4648L102.437 49.6115C102.455 49.6535 102.496 49.6808 102.541 49.6808H108.896C108.976 49.6808 109.03 49.5996 109 49.5254L105.497 40.9575Z" fill="#4F7FEA"/>
<path d="M53.3734 42.383C53.3042 42.3955 53.2406 42.3423 53.2406 42.272V40.4898V27.0697V16.1307C53.2406 16.0684 53.2911 16.0179 53.3534 16.0179H64.1233C73.1261 17.2514 77.0341 19.3538 79.1222 29.156C79.5685 32.249 79.4246 34.131 78.4639 37.8505C78.4529 37.8933 78.4177 37.9265 78.3743 37.9342L70.0187 39.4152C69.9886 39.4206 69.9682 39.3856 69.9875 39.362C76.0055 31.9942 73.1037 20.5312 59.7714 21.9835C59.7143 21.9897 59.6687 22.0382 59.6687 22.0956V41.1555C59.6687 41.2101 59.6297 41.2568 59.5759 41.2665L53.3734 42.383Z" fill="#A9C2FF"/>
<path d="M83.7346 36.957C83.6447 36.9737 83.5733 36.8819 83.6117 36.7989L93.569 15.2218C93.6091 15.1349 93.7323 15.1343 93.7733 15.2207L102.403 33.4124C102.435 33.4795 102.394 33.5586 102.321 33.5717L96.2933 34.6568C96.2427 34.6659 96.1924 34.6397 96.1709 34.593L93.7763 29.3871C93.7354 29.2982 93.6085 29.3 93.5701 29.3899L90.9308 35.5709C90.9159 35.6056 90.8847 35.6306 90.8476 35.6375L83.7346 36.957Z" fill="#A9C2FF"/>
<path d="M112.974 31.654C112.905 31.6665 112.842 31.6133 112.842 31.543V15.9051C112.842 15.8428 112.892 15.7923 112.954 15.7923H131.618C131.681 15.7923 131.731 15.8428 131.731 15.9051V21.8257C131.731 21.888 131.681 21.9385 131.618 21.9385H118.988C118.925 21.9385 118.875 21.989 118.875 22.0513V28.7129C118.875 28.7752 118.925 28.8256 118.988 28.8256H127.423C127.561 28.8256 127.579 29.025 127.443 29.0494L112.974 31.654Z" fill="#A9C2FF"/>
<path fill-rule="evenodd" clip-rule="evenodd" d="M53.2406 40.4898V27.0697C53.2406 26.7693 53.0635 26.4697 52.8034 26.3195L41.1432 19.5874C40.883 19.4372 40.5624 19.4372 40.3023 19.5874L28.642 26.3195C28.6084 26.3389 28.5765 26.3604 28.5463 26.3839L22.223 22.799V23.515L22.222 23.5446C22.2122 23.6915 22.1298 23.8248 22.0012 23.899L21.9396 23.9346L28.2216 27.4961V40.1756L21.9227 43.858L15.6351 40.2278C15.4928 40.1456 15.3175 40.1456 15.1752 40.2278L8.79855 43.9094C8.65628 43.9916 8.5686 44.1434 8.5686 44.3077V51.6708C8.5686 51.835 8.65628 51.9868 8.79855 52.069L15.1752 55.7507L15.2023 55.7651C15.3302 55.828 15.4802 55.828 15.608 55.7651L15.6351 55.7507L21.6951 52.2519L29.7723 56.9835V61.9188C29.7723 62.0396 29.8367 62.1514 29.9414 62.2118L34.6329 64.9204C34.7375 64.9808 34.8665 64.9808 34.9712 64.9204L39.6626 62.2118C39.7608 62.1552 39.8236 62.0534 39.831 61.9413L39.8318 61.9188V56.5017C39.8318 56.3808 39.7673 56.269 39.6626 56.2086L34.9712 53.5C34.8665 53.4396 34.7375 53.4396 34.6329 53.5L30.3136 55.9937L22.2417 51.2652V44.9777L28.6387 41.238L28.642 41.24L40.3023 47.972C40.5624 48.1222 40.883 48.1222 41.1432 47.972L52.8034 41.24C53.0635 41.0898 53.2406 40.7902 53.2406 40.4898ZM10.0347 51.0898L15.4052 54.1904L20.7757 51.0898V44.8885L15.4052 41.7879L10.0347 44.8885V51.0898ZM31.2383 61.2677L34.802 63.3251L38.3657 61.2677V57.1526L34.802 55.0952L31.2383 57.1526V61.2677ZM42.9782 26.4494H38.0162C37.8916 26.4494 37.7906 26.5504 37.7906 26.675V31.0732H33.618C33.4934 31.0732 33.3925 31.1742 33.3925 31.2987V36.2608C33.3925 36.3853 33.4934 36.4863 33.618 36.4863H37.7906V40.8845C37.7906 41.009 37.8916 41.11 38.0162 41.11H42.9782C43.1028 41.11 43.2038 41.009 43.2038 40.8845V36.4863H47.8275C47.9521 36.4863 48.053 36.3853 48.053 36.2608V31.2987C48.053 31.1742 47.9521 31.0732 47.8275 31.0732H43.2038V26.675C43.2038 26.5504 43.1028 26.4494 42.9782 26.4494Z" fill="#4F7FEA"/>
<path fill-rule="evenodd" clip-rule="evenodd" d="M28.4303 11.4656L24.0787 8.9533L16.7983 13.0269L22.0012 16.0309C22.1384 16.1101 22.223 16.2565 22.223 16.4149V22.799V23.515L22.222 23.5446C22.2122 23.6915 22.1298 23.8248 22.0012 23.899L21.9396 23.9346L16.0874 27.3134L16.0945 27.3249L10.0595 31.0186V35.868L10.0588 35.8906C10.0513 36.0027 9.98851 36.1044 9.89038 36.1611L5.19893 38.8696C5.09426 38.9301 4.96529 38.9301 4.86061 38.8696L0.169161 36.1611C0.0644923 36.1007 0 35.9889 0 35.868V30.4509C0 30.3301 0.0644922 30.2183 0.169161 30.1579L4.86061 27.4493C4.96529 27.3889 5.09426 27.3889 5.19893 27.4493L9.58947 29.9841L14.5456 26.9507L9.26 23.899C9.1228 23.8198 9.03819 23.6734 9.03819 23.515V16.4149C9.03819 16.2565 9.1228 16.1101 9.26 16.0309L15.4089 12.4807C15.4567 12.4531 15.5084 12.4351 15.5613 12.4267L23.5697 7.94584V3.04693C23.5697 2.92607 23.6342 2.81431 23.7389 2.75388L28.4303 0.0453264C28.535 -0.0151088 28.664 -0.0151088 28.7686 0.0453264L33.4601 2.75388C33.5648 2.81431 33.6292 2.92607 33.6292 3.04693V8.46404L33.6285 8.48661C33.621 8.5987 33.5582 8.70043 33.4601 8.75709L28.7686 11.4656C28.664 11.5261 28.535 11.5261 28.4303 11.4656ZM25.0358 3.69792V7.81294L28.5995 9.8704L32.1632 7.81294V3.69792L28.5995 1.64046L25.0358 3.69792ZM5.02977 29.0445L1.46606 31.1019V35.2169L5.02977 37.2744L8.59349 35.2169V31.1019L5.02977 29.0445ZM10.5043 17.0052L15.6306 14.0455L20.757 17.0052V22.9246L15.6306 25.8842L10.5043 22.9246V17.0052Z" fill="#4F7FEA"/>
<path d="M57.2373 60.2211H56.0453V57.1231H57.2252C57.5439 57.1231 57.8192 57.1851 58.0511 57.3091C58.2841 57.4322 58.4636 57.6097 58.5897 57.8416C58.7167 58.0726 58.7803 58.3494 58.7803 58.6721C58.7803 58.9948 58.7172 59.2722 58.5912 59.5041C58.4651 59.7351 58.2866 59.9126 58.0557 60.0366C57.8247 60.1596 57.5519 60.2211 57.2373 60.2211ZM56.8863 59.5071H57.207C57.3603 59.5071 57.4909 59.4824 57.5988 59.433C57.7077 59.3836 57.7904 59.2984 57.8469 59.1774C57.9044 59.0563 57.9331 58.8879 57.9331 58.6721C57.9331 58.4563 57.9039 58.2879 57.8454 58.1669C57.7879 58.0458 57.7032 57.9606 57.5913 57.9112C57.4803 57.8618 57.3442 57.8371 57.1828 57.8371H56.8863V59.5071Z" fill="#A9C2FF"/>
<path d="M59.1694 60.2211V57.1231H61.4022V57.8008H60.0105V58.3333H61.2872V59.011H60.0105V59.5434H61.3962V60.2211H59.1694Z" fill="#A9C2FF"/>
<path d="M61.8193 60.2211V57.1231H63.1566C63.3865 57.1231 63.5877 57.1685 63.7602 57.2592C63.9326 57.35 64.0668 57.4776 64.1626 57.6419C64.2584 57.8063 64.3063 57.9984 64.3063 58.2183C64.3063 58.4402 64.2568 58.6323 64.158 58.7946C64.0602 58.957 63.9225 59.0821 63.745 59.1698C63.5686 59.2575 63.3623 59.3014 63.1263 59.3014H62.3276V58.6479H62.9569C63.0557 58.6479 63.14 58.6308 63.2095 58.5965C63.2801 58.5612 63.3341 58.5113 63.3714 58.4467C63.4097 58.3822 63.4289 58.306 63.4289 58.2183C63.4289 58.1295 63.4097 58.0539 63.3714 57.9914C63.3341 57.9278 63.2801 57.8794 63.2095 57.8462C63.14 57.8119 63.0557 57.7947 62.9569 57.7947H62.6604V60.2211H61.8193Z" fill="#A9C2FF"/>
<path d="M65.0328 60.2211H64.1251L65.1477 57.1231H66.2974L67.32 60.2211H66.4124L65.7347 57.9763H65.7105L65.0328 60.2211ZM64.8633 58.9989H66.5697V59.6282H64.8633V58.9989Z" fill="#A9C2FF"/>
<path d="M67.6184 60.2211V57.1231H68.9556C69.1856 57.1231 69.3868 57.1649 69.5592 57.2486C69.7317 57.3323 69.8658 57.4528 69.9616 57.6102C70.0574 57.7675 70.1053 57.9561 70.1053 58.1759C70.1053 58.3978 70.0559 58.5849 69.9571 58.7372C69.8592 58.8894 69.7216 59.0044 69.5441 59.0821C69.3676 59.1597 69.1614 59.1985 68.9254 59.1985H68.1267V58.545H68.756C68.8548 58.545 68.939 58.5329 69.0086 58.5087C69.0792 58.4835 69.1331 58.4437 69.1704 58.3892C69.2088 58.3348 69.2279 58.2637 69.2279 58.1759C69.2279 58.0872 69.2088 58.0151 69.1704 57.9596C69.1331 57.9031 69.0792 57.8618 69.0086 57.8356C68.939 57.8083 68.8548 57.7947 68.756 57.7947H68.4595V60.2211H67.6184ZM69.4337 58.7992L70.2082 60.2211H69.2945L68.5381 58.7992H69.4337Z" fill="#A9C2FF"/>
<path d="M70.3791 57.8008V57.1231H73.0718V57.8008H72.1399V60.2211H71.311V57.8008H70.3791Z" fill="#A9C2FF"/>
<path d="M73.802 60.2211H72.8944L73.917 57.1231H75.0667L76.0893 60.2211H75.1817L74.504 57.9763H74.4797L73.802 60.2211ZM73.6326 58.9989H75.339V59.6282H73.6326V58.9989Z" fill="#A9C2FF"/>
<path d="M76.3877 57.1231H77.4345L78.1545 58.8778H78.1908L78.9109 57.1231H79.9577V60.2211H79.1348V58.4301H79.1106L78.4208 60.1969H77.9246L77.2348 58.418H77.2106V60.2211H76.3877V57.1231Z" fill="#A9C2FF"/>
<path d="M80.3563 60.2211V57.1231H82.5891V57.8008H81.1974V58.3333H82.4741V59.011H81.1974V59.5434H82.5831V60.2211H80.3563Z" fill="#A9C2FF"/>
<path d="M85.6868 57.1231V60.2211H84.9849L83.8655 58.5934H83.8473V60.2211H83.0062V57.1231H83.7203L84.8215 58.7447H84.8457V57.1231H85.6868Z" fill="#A9C2FF"/>
<path d="M85.9999 57.8008V57.1231H88.6926V57.8008H87.7608V60.2211H86.9318V57.8008H85.9999Z" fill="#A9C2FF"/>
<path d="M91.8648 58.6721C91.8648 59.017 91.7977 59.308 91.6636 59.545C91.5295 59.7809 91.3484 59.9599 91.1205 60.082C90.8926 60.203 90.6385 60.2635 90.3581 60.2635C90.0757 60.2635 89.8206 60.2025 89.5927 60.0805C89.3658 59.9574 89.1852 59.7779 89.0511 59.5419C88.918 59.3049 88.8514 59.015 88.8514 58.6721C88.8514 58.3272 88.918 58.0368 89.0511 57.8008C89.1852 57.5638 89.3658 57.3848 89.5927 57.2638C89.8206 57.1417 90.0757 57.0807 90.3581 57.0807C90.6385 57.0807 90.8926 57.1417 91.1205 57.2638C91.3484 57.3848 91.5295 57.5638 91.6636 57.8008C91.7977 58.0368 91.8648 58.3272 91.8648 58.6721ZM90.9995 58.6721C90.9995 58.4866 90.9748 58.3302 90.9254 58.2032C90.877 58.0751 90.8049 57.9783 90.7091 57.9127C90.6143 57.8462 90.4973 57.8129 90.3581 57.8129C90.2189 57.8129 90.1014 57.8462 90.0056 57.9127C89.9108 57.9783 89.8387 58.0751 89.7893 58.2032C89.7409 58.3302 89.7167 58.4866 89.7167 58.6721C89.7167 58.8577 89.7409 59.0145 89.7893 59.1426C89.8387 59.2696 89.9108 59.3665 90.0056 59.433C90.1014 59.4986 90.2189 59.5313 90.3581 59.5313C90.4973 59.5313 90.6143 59.4986 90.7091 59.433C90.8049 59.3665 90.877 59.2696 90.9254 59.1426C90.9748 59.0145 90.9995 58.8577 90.9995 58.6721Z" fill="#A9C2FF"/>
<path d="M94.2946 60.2211H93.1026V57.1231H94.2825C94.6012 57.1231 94.8765 57.1851 95.1085 57.3091C95.3414 57.4322 95.5209 57.6097 95.647 57.8416C95.7741 58.0726 95.8376 58.3494 95.8376 58.6721C95.8376 58.9948 95.7746 59.2722 95.6485 59.5041C95.5224 59.7351 95.3439 59.9126 95.113 60.0366C94.882 60.1596 94.6093 60.2211 94.2946 60.2211ZM93.9437 59.5071H94.2644C94.4176 59.5071 94.5482 59.4824 94.6562 59.433C94.7651 59.3836 94.8478 59.2984 94.9042 59.1774C94.9617 59.0563 94.9905 58.8879 94.9905 58.6721C94.9905 58.4563 94.9612 58.2879 94.9027 58.1669C94.8452 58.0458 94.7605 57.9606 94.6486 57.9112C94.5377 57.8618 94.4015 57.8371 94.2402 57.8371H93.9437V59.5071Z" fill="#A9C2FF"/>
<path d="M96.2267 60.2211V57.1231H98.4595V57.8008H97.0678V58.3333H98.3446V59.011H97.0678V59.5434H98.4535V60.2211H96.2267Z" fill="#A9C2FF"/>
<path d="M100.53 60.2211H99.6224L100.645 57.1231H101.795L102.817 60.2211H101.91L101.232 57.9763H101.208L100.53 60.2211ZM100.361 58.9989H102.067V59.6282H100.361V58.9989Z" fill="#A9C2FF"/>
<path d="M104.665 58.0912C104.657 57.9904 104.619 57.9117 104.552 57.8552C104.485 57.7988 104.384 57.7705 104.248 57.7705C104.161 57.7705 104.09 57.7811 104.034 57.8023C103.98 57.8225 103.94 57.8502 103.913 57.8855C103.887 57.9208 103.873 57.9611 103.872 58.0065C103.87 58.0438 103.877 58.0776 103.892 58.1079C103.908 58.1371 103.933 58.1638 103.968 58.188C104.002 58.2112 104.046 58.2324 104.099 58.2516C104.153 58.2707 104.216 58.2879 104.29 58.303L104.544 58.3575C104.716 58.3938 104.862 58.4417 104.984 58.5012C105.106 58.5607 105.206 58.6308 105.284 58.7114C105.361 58.7911 105.418 58.8809 105.455 58.9807C105.492 59.0805 105.511 59.1895 105.512 59.3075C105.511 59.5112 105.46 59.6836 105.359 59.8248C105.259 59.966 105.114 60.0734 104.927 60.147C104.74 60.2206 104.516 60.2575 104.254 60.2575C103.984 60.2575 103.749 60.2176 103.549 60.1379C103.349 60.0583 103.194 59.9357 103.083 59.7704C102.973 59.604 102.917 59.3912 102.916 59.132H103.715C103.72 59.2268 103.744 59.3064 103.786 59.371C103.829 59.4355 103.888 59.4844 103.965 59.5177C104.042 59.551 104.135 59.5676 104.242 59.5676C104.331 59.5676 104.406 59.5565 104.467 59.5344C104.527 59.5122 104.573 59.4814 104.605 59.4421C104.636 59.4028 104.652 59.3579 104.653 59.3075C104.652 59.2601 104.636 59.2187 104.606 59.1834C104.577 59.1471 104.528 59.1148 104.461 59.0866C104.393 59.0574 104.302 59.0301 104.187 59.0049L103.879 58.9384C103.604 58.8788 103.388 58.7795 103.23 58.6403C103.072 58.5002 102.994 58.3091 102.995 58.067C102.994 57.8704 103.046 57.6984 103.152 57.5512C103.259 57.4029 103.407 57.2875 103.596 57.2048C103.785 57.1221 104.003 57.0807 104.248 57.0807C104.498 57.0807 104.714 57.1226 104.897 57.2063C105.079 57.29 105.22 57.408 105.319 57.5603C105.418 57.7115 105.469 57.8885 105.47 58.0912H104.665Z" fill="#A9C2FF"/>
<path d="M107.502 58.0912C107.494 57.9904 107.456 57.9117 107.389 57.8552C107.322 57.7988 107.221 57.7705 107.085 57.7705C106.998 57.7705 106.927 57.7811 106.871 57.8023C106.817 57.8225 106.777 57.8502 106.75 57.8855C106.724 57.9208 106.711 57.9611 106.71 58.0065C106.708 58.0438 106.714 58.0776 106.729 58.1079C106.745 58.1371 106.771 58.1638 106.805 58.188C106.839 58.2112 106.883 58.2324 106.936 58.2516C106.99 58.2707 107.053 58.2879 107.127 58.303L107.381 58.3575C107.553 58.3938 107.699 58.4417 107.821 58.5012C107.943 58.5607 108.043 58.6308 108.121 58.7114C108.199 58.7911 108.256 58.8809 108.292 58.9807C108.329 59.0805 108.348 59.1895 108.349 59.3075C108.348 59.5112 108.297 59.6836 108.197 59.8248C108.096 59.966 107.952 60.0734 107.764 60.147C107.577 60.2206 107.353 60.2575 107.091 60.2575C106.822 60.2575 106.587 60.2176 106.386 60.1379C106.186 60.0583 106.031 59.9357 105.92 59.7704C105.81 59.604 105.755 59.3912 105.754 59.132H106.552C106.557 59.2268 106.581 59.3064 106.623 59.371C106.666 59.4355 106.725 59.4844 106.802 59.5177C106.88 59.551 106.972 59.5676 107.079 59.5676C107.168 59.5676 107.244 59.5565 107.304 59.5344C107.365 59.5122 107.41 59.4814 107.442 59.4421C107.473 59.4028 107.489 59.3579 107.49 59.3075C107.489 59.2601 107.474 59.2187 107.443 59.1834C107.414 59.1471 107.366 59.1148 107.298 59.0866C107.23 59.0574 107.139 59.0301 107.024 59.0049L106.716 58.9384C106.441 58.8788 106.225 58.7795 106.067 58.6403C105.909 58.5002 105.831 58.3091 105.832 58.067C105.831 57.8704 105.884 57.6984 105.99 57.5512C106.096 57.4029 106.244 57.2875 106.433 57.2048C106.622 57.1221 106.84 57.0807 107.085 57.0807C107.335 57.0807 107.551 57.1226 107.734 57.2063C107.916 57.29 108.057 57.408 108.156 57.5603C108.256 57.7115 108.306 57.8885 108.307 58.0912H107.502Z" fill="#A9C2FF"/>
<path d="M109.51 57.1231V60.2211H108.669V57.1231H109.51Z" fill="#A9C2FF"/>
<path d="M111.579 58.0912C111.571 57.9904 111.533 57.9117 111.466 57.8552C111.399 57.7988 111.298 57.7705 111.162 57.7705C111.075 57.7705 111.004 57.7811 110.948 57.8023C110.894 57.8225 110.853 57.8502 110.827 57.8855C110.801 57.9208 110.787 57.9611 110.786 58.0065C110.784 58.0438 110.791 58.0776 110.806 58.1079C110.822 58.1371 110.847 58.1638 110.882 58.188C110.916 58.2112 110.96 58.2324 111.013 58.2516C111.067 58.2707 111.13 58.2879 111.204 58.303L111.458 58.3575C111.629 58.3938 111.776 58.4417 111.898 58.5012C112.02 58.5607 112.12 58.6308 112.198 58.7114C112.275 58.7911 112.332 58.8809 112.369 58.9807C112.406 59.0805 112.425 59.1895 112.426 59.3075C112.425 59.5112 112.374 59.6836 112.273 59.8248C112.173 59.966 112.028 60.0734 111.841 60.147C111.654 60.2206 111.43 60.2575 111.168 60.2575C110.898 60.2575 110.663 60.2176 110.463 60.1379C110.263 60.0583 110.108 59.9357 109.997 59.7704C109.887 59.604 109.831 59.3912 109.83 59.132H110.629C110.634 59.2268 110.658 59.3064 110.7 59.371C110.743 59.4355 110.802 59.4844 110.879 59.5177C110.956 59.551 111.049 59.5676 111.155 59.5676C111.245 59.5676 111.32 59.5565 111.381 59.5344C111.441 59.5122 111.487 59.4814 111.519 59.4421C111.55 59.4028 111.566 59.3579 111.567 59.3075C111.566 59.2601 111.55 59.2187 111.52 59.1834C111.491 59.1471 111.442 59.1148 111.375 59.0866C111.307 59.0574 111.216 59.0301 111.101 59.0049L110.792 58.9384C110.518 58.8788 110.302 58.7795 110.143 58.6403C109.986 58.5002 109.908 58.3091 109.909 58.067C109.908 57.8704 109.96 57.6984 110.066 57.5512C110.173 57.4029 110.321 57.2875 110.51 57.2048C110.699 57.1221 110.916 57.0807 111.162 57.0807C111.412 57.0807 111.628 57.1226 111.811 57.2063C111.993 57.29 112.134 57.408 112.233 57.5603C112.332 57.7115 112.383 57.8885 112.384 58.0912H111.579Z" fill="#A9C2FF"/>
<path d="M112.661 57.8008V57.1231H115.354V57.8008H114.422V60.2211H113.593V57.8008H112.661Z" fill="#A9C2FF"/>
<path d="M115.671 60.2211V57.1231H117.903V57.8008H116.512V58.3333H117.788V59.011H116.512V59.5434H117.897V60.2211H115.671ZM117.093 56.8447L116.796 56.5119L116.5 56.8447H115.81V56.8266L116.506 56.1368H117.087L117.782 56.8266V56.8447H117.093Z" fill="#A9C2FF"/>
<path d="M121.001 57.1231V60.2211H120.299L119.18 58.5934H119.162V60.2211H118.321V57.1231H119.035L120.136 58.7447H120.16V57.1231H121.001Z" fill="#A9C2FF"/>
<path d="M124.291 58.2849H123.438C123.432 58.2143 123.416 58.1502 123.39 58.0927C123.364 58.0353 123.329 57.9858 123.284 57.9445C123.239 57.9021 123.185 57.8699 123.122 57.8477C123.058 57.8245 122.986 57.8129 122.906 57.8129C122.764 57.8129 122.645 57.8472 122.547 57.9157C122.45 57.9843 122.377 58.0826 122.326 58.2107C122.277 58.3388 122.252 58.4926 122.252 58.6721C122.252 58.8617 122.277 59.0205 122.328 59.1486C122.379 59.2757 122.453 59.3715 122.55 59.436C122.647 59.4996 122.763 59.5313 122.9 59.5313C122.977 59.5313 123.047 59.5218 123.108 59.5026C123.17 59.4824 123.223 59.4537 123.269 59.4164C123.314 59.3791 123.351 59.3342 123.379 59.2817C123.408 59.2283 123.428 59.1683 123.438 59.1017L124.291 59.1078C124.281 59.2389 124.244 59.3725 124.181 59.5086C124.117 59.6438 124.027 59.7688 123.91 59.8838C123.794 59.9978 123.65 60.0895 123.479 60.1591C123.308 60.2287 123.108 60.2635 122.881 60.2635C122.597 60.2635 122.342 60.2025 122.116 60.0805C121.891 59.9584 121.713 59.7789 121.582 59.5419C121.452 59.3049 121.387 59.015 121.387 58.6721C121.387 58.3272 121.453 58.0368 121.587 57.8008C121.72 57.5638 121.899 57.3848 122.125 57.2638C122.351 57.1417 122.603 57.0807 122.881 57.0807C123.077 57.0807 123.257 57.1074 123.421 57.1609C123.586 57.2143 123.73 57.2925 123.854 57.3954C123.978 57.4972 124.078 57.6228 124.154 57.772C124.229 57.9213 124.275 58.0922 124.291 58.2849Z" fill="#A9C2FF"/>
<path d="M125.514 57.1231V60.2211H124.673V57.1231H125.514Z" fill="#A9C2FF"/>
<path d="M126.717 60.2211H125.81L126.832 57.1231H127.982L129.005 60.2211H128.097L127.419 57.9763H127.395L126.717 60.2211ZM126.548 58.9989H128.254V59.6282H126.548V58.9989Z" fill="#A9C2FF"/>
<path d="M75.0336 64.9576V61.8596H77.2119V62.5373H75.8747V63.0698H77.0788V63.7475H75.8747V64.9576H75.0336Z" fill="#A9C2FF"/>
<path d="M77.9392 64.9576H77.0315L78.0541 61.8596H79.2038L80.2264 64.9576H79.3188L78.6411 62.7128H78.6169L77.9392 64.9576ZM77.7697 63.7354H79.4761V64.3646H77.7697V63.7354Z" fill="#A9C2FF"/>
<path d="M80.5248 64.9576V61.8596H81.8621C82.092 61.8596 82.2932 61.9014 82.4656 61.9851C82.6381 62.0688 82.7722 62.1893 82.868 62.3467C82.9638 62.504 83.0117 62.6926 83.0117 62.9124C83.0117 63.1343 82.9623 63.3214 82.8635 63.4737C82.7657 63.6259 82.628 63.7409 82.4505 63.8186C82.274 63.8962 82.0678 63.935 81.8318 63.935H81.0331V63.2815H81.6624C81.7612 63.2815 81.8454 63.2694 81.915 63.2452C81.9856 63.22 82.0395 63.1802 82.0769 63.1257C82.1152 63.0713 82.1343 63.0002 82.1343 62.9124C82.1343 62.8237 82.1152 62.7516 82.0769 62.6961C82.0395 62.6396 81.9856 62.5983 81.915 62.5721C81.8454 62.5448 81.7612 62.5312 81.6624 62.5312H81.3659V64.9576H80.5248ZM82.3401 63.5357L83.1146 64.9576H82.2009L81.4445 63.5357H82.3401Z" fill="#A9C2FF"/>
<path d="M83.3702 61.8596H84.4171L85.1371 63.6143H85.1734L85.8935 61.8596H86.9403V64.9576H86.1174V63.1666H86.0932L85.4034 64.9334H84.9072L84.2174 63.1545H84.1932V64.9576H83.3702V61.8596Z" fill="#A9C2FF"/>
<path d="M88.1437 64.9576H87.236L88.2586 61.8596H89.4083L90.4309 64.9576H89.5233L88.8456 62.7128H88.8214L88.1437 64.9576ZM87.9742 63.7354H89.6806V64.3646H87.9742V63.7354Z" fill="#A9C2FF"/>
<path d="M93.476 63.0213H92.6228C92.6168 62.9507 92.6007 62.8867 92.5744 62.8292C92.5492 62.7717 92.5139 62.7223 92.4686 62.681C92.4242 62.6386 92.3702 62.6064 92.3067 62.5842C92.2432 62.561 92.171 62.5494 92.0904 62.5494C91.9492 62.5494 91.8297 62.5837 91.7319 62.6522C91.635 62.7208 91.5614 62.8191 91.511 62.9472C91.4616 63.0753 91.4369 63.2291 91.4369 63.4086C91.4369 63.5982 91.4621 63.757 91.5125 63.8851C91.5639 64.0122 91.6381 64.108 91.7349 64.1725C91.8317 64.2361 91.9482 64.2678 92.0843 64.2678C92.162 64.2678 92.2316 64.2583 92.2931 64.2391C92.3546 64.2189 92.408 64.1902 92.4534 64.1529C92.4988 64.1156 92.5356 64.0707 92.5639 64.0182C92.5931 63.9648 92.6128 63.9048 92.6228 63.8382L93.476 63.8443C93.466 63.9754 93.4291 64.109 93.3656 64.2451C93.3021 64.3803 93.2118 64.5053 93.0948 64.6203C92.9788 64.7343 92.8351 64.826 92.6637 64.8956C92.4923 64.9652 92.2931 65 92.0662 65C91.7818 65 91.5266 64.939 91.3007 64.817C91.0758 64.6949 90.8978 64.5154 90.7667 64.2784C90.6366 64.0414 90.5716 63.7515 90.5716 63.4086C90.5716 63.0637 90.6382 62.7733 90.7713 62.5373C90.9044 62.3003 91.0839 62.1213 91.3098 62.0003C91.5357 61.8782 91.7878 61.8172 92.0662 61.8172C92.2618 61.8172 92.4418 61.8439 92.6062 61.8974C92.7706 61.9508 92.9148 62.029 93.0389 62.1319C93.1629 62.2337 93.2627 62.3593 93.3384 62.5085C93.414 62.6578 93.4599 62.8287 93.476 63.0213Z" fill="#A9C2FF"/>
<path d="M93.8576 64.9576V61.8596H96.0904V62.5373H94.6987V63.0698H95.9754V63.7475H94.6987V64.2799H96.0844V64.9576H93.8576ZM95.2796 61.5812L94.9831 61.2484L94.6866 61.5812H93.9968V61.5631L94.6926 60.8733H95.2735L95.9694 61.5631V61.5812H95.2796Z" fill="#A9C2FF"/>
<path d="M98.341 61.8596H99.182V63.8443C99.182 64.0803 99.1256 64.2845 99.0126 64.4569C98.9007 64.6284 98.7444 64.761 98.5437 64.8548C98.343 64.9475 98.11 64.9939 97.8448 64.9939C97.5775 64.9939 97.3436 64.9475 97.1429 64.8548C96.9422 64.761 96.7859 64.6284 96.6739 64.4569C96.563 64.2845 96.5075 64.0803 96.5075 63.8443V61.8596H97.3486V63.7717C97.3486 63.8675 97.3698 63.9532 97.4122 64.0288C97.4545 64.1035 97.513 64.1619 97.5876 64.2043C97.6633 64.2467 97.749 64.2678 97.8448 64.2678C97.9416 64.2678 98.0273 64.2467 98.102 64.2043C98.1766 64.1619 98.2351 64.1035 98.2774 64.0288C98.3198 63.9532 98.341 63.8675 98.341 63.7717V61.8596Z" fill="#A9C2FF"/>
<path d="M99.4971 62.5373V61.8596H102.19V62.5373H101.258V64.9576H100.429V62.5373H99.4971Z" fill="#A9C2FF"/>
<path d="M103.347 61.8596V64.9576H102.506V61.8596H103.347Z" fill="#A9C2FF"/>
<path d="M106.638 63.0213H105.785C105.779 62.9507 105.763 62.8867 105.737 62.8292C105.711 62.7717 105.676 62.7223 105.631 62.681C105.586 62.6386 105.532 62.6064 105.469 62.5842C105.405 62.561 105.333 62.5494 105.253 62.5494C105.111 62.5494 104.992 62.5837 104.894 62.6522C104.797 62.7208 104.724 62.8191 104.673 62.9472C104.624 63.0753 104.599 63.2291 104.599 63.4086C104.599 63.5982 104.624 63.757 104.675 63.8851C104.726 64.0122 104.8 64.108 104.897 64.1725C104.994 64.2361 105.11 64.2678 105.247 64.2678C105.324 64.2678 105.394 64.2583 105.455 64.2391C105.517 64.2189 105.57 64.1902 105.616 64.1529C105.661 64.1156 105.698 64.0707 105.726 64.0182C105.755 63.9648 105.775 63.9048 105.785 63.8382L106.638 63.8443C106.628 63.9754 106.591 64.109 106.528 64.2451C106.464 64.3803 106.374 64.5053 106.257 64.6203C106.141 64.7343 105.997 64.826 105.826 64.8956C105.655 64.9652 105.455 65 105.228 65C104.944 65 104.689 64.939 104.463 64.817C104.238 64.6949 104.06 64.5154 103.929 64.2784C103.799 64.0414 103.734 63.7515 103.734 63.4086C103.734 63.0637 103.8 62.7733 103.934 62.5373C104.067 62.3003 104.246 62.1213 104.472 62.0003C104.698 61.8782 104.95 61.8172 105.228 61.8172C105.424 61.8172 105.604 61.8439 105.768 61.8974C105.933 61.9508 106.077 62.029 106.201 62.1319C106.325 62.2337 106.425 62.3593 106.501 62.5085C106.576 62.6578 106.622 62.8287 106.638 63.0213Z" fill="#A9C2FF"/>
<path d="M107.729 64.9576H106.821L107.844 61.8596H108.994L110.016 64.9576H109.109L108.431 62.7128H108.407L107.729 64.9576ZM107.56 63.7354H109.266V64.3646H107.56V63.7354Z" fill="#A9C2FF"/>
</svg>
