<svg width="54" height="65" viewBox="0 0 54 65" fill="none" xmlns="http://www.w3.org/2000/svg">
<path fill-rule="evenodd" clip-rule="evenodd" d="M53.2406 40.4898V27.0697C53.2406 26.7693 53.0635 26.4697 52.8034 26.3195L41.1432 19.5874C40.883 19.4372 40.5624 19.4372 40.3023 19.5874L28.642 26.3195C28.6084 26.3389 28.5765 26.3604 28.5463 26.3839L22.223 22.799V23.515L22.222 23.5446C22.2122 23.6915 22.1298 23.8248 22.0012 23.899L21.9396 23.9346L28.2216 27.4961V40.1756L21.9227 43.858L15.6351 40.2278C15.4928 40.1456 15.3175 40.1456 15.1752 40.2278L8.79855 43.9094C8.65628 43.9916 8.5686 44.1434 8.5686 44.3077V51.6708C8.5686 51.835 8.65628 51.9868 8.79855 52.069L15.1752 55.7507L15.2023 55.7651C15.3302 55.828 15.4802 55.828 15.608 55.7651L15.6351 55.7507L21.6951 52.2519L29.7723 56.9835V61.9188C29.7723 62.0396 29.8367 62.1514 29.9414 62.2118L34.6329 64.9204C34.7375 64.9808 34.8665 64.9808 34.9712 64.9204L39.6626 62.2118C39.7608 62.1552 39.8236 62.0534 39.831 61.9413L39.8318 61.9188V56.5017C39.8318 56.3808 39.7673 56.269 39.6626 56.2086L34.9712 53.5C34.8665 53.4396 34.7375 53.4396 34.6329 53.5L30.3136 55.9937L22.2417 51.2652V44.9777L28.6387 41.238L28.642 41.24L40.3023 47.972C40.5624 48.1222 40.883 48.1222 41.1432 47.972L52.8034 41.24C53.0635 41.0898 53.2406 40.7902 53.2406 40.4898ZM10.0347 51.0898L15.4052 54.1904L20.7757 51.0898V44.8885L15.4052 41.7879L10.0347 44.8885V51.0898ZM31.2383 61.2677L34.802 63.3251L38.3657 61.2677V57.1526L34.802 55.0952L31.2383 57.1526V61.2677ZM42.9782 26.4494H38.0162C37.8916 26.4494 37.7906 26.5504 37.7906 26.675V31.0732H33.618C33.4934 31.0732 33.3925 31.1742 33.3925 31.2987V36.2608C33.3925 36.3853 33.4934 36.4863 33.618 36.4863H37.7906V40.8845C37.7906 41.009 37.8916 41.11 38.0162 41.11H42.9782C43.1028 41.11 43.2038 41.009 43.2038 40.8845V36.4863H47.8275C47.9521 36.4863 48.053 36.3853 48.053 36.2608V31.2987C48.053 31.1742 47.9521 31.0732 47.8275 31.0732H43.2038V26.675C43.2038 26.5504 43.1028 26.4494 42.9782 26.4494Z" fill="#4F7FEA"/>
<path fill-rule="evenodd" clip-rule="evenodd" d="M28.4303 11.4656L24.0787 8.9533L16.7983 13.0269L22.0012 16.0309C22.1384 16.1101 22.223 16.2565 22.223 16.4149V22.799V23.515L22.222 23.5446C22.2122 23.6915 22.1298 23.8248 22.0012 23.899L21.9396 23.9346L16.0874 27.3134L16.0945 27.3249L10.0595 31.0186V35.868L10.0588 35.8906C10.0513 36.0027 9.98851 36.1044 9.89038 36.1611L5.19893 38.8696C5.09426 38.9301 4.96529 38.9301 4.86061 38.8696L0.169161 36.1611C0.0644923 36.1007 0 35.9889 0 35.868V30.4509C0 30.3301 0.0644922 30.2183 0.169161 30.1579L4.86061 27.4493C4.96529 27.3889 5.09426 27.3889 5.19893 27.4493L9.58947 29.9841L14.5456 26.9507L9.26 23.899C9.1228 23.8198 9.03819 23.6734 9.03819 23.515V16.4149C9.03819 16.2565 9.1228 16.1101 9.26 16.0309L15.4089 12.4807C15.4567 12.4531 15.5084 12.4351 15.5613 12.4267L23.5697 7.94584V3.04693C23.5697 2.92607 23.6342 2.81431 23.7389 2.75388L28.4303 0.0453264C28.535 -0.0151088 28.664 -0.0151088 28.7686 0.0453264L33.4601 2.75388C33.5648 2.81431 33.6292 2.92607 33.6292 3.04693V8.46404L33.6285 8.48661C33.621 8.5987 33.5582 8.70043 33.4601 8.75709L28.7686 11.4656C28.664 11.5261 28.535 11.5261 28.4303 11.4656ZM25.0358 3.69792V7.81294L28.5995 9.8704L32.1632 7.81294V3.69792L28.5995 1.64046L25.0358 3.69792ZM5.02977 29.0445L1.46606 31.1019V35.2169L5.02977 37.2744L8.59349 35.2169V31.1019L5.02977 29.0445ZM10.5043 17.0052L15.6306 14.0455L20.757 17.0052V22.9246L15.6306 25.8842L10.5043 22.9246V17.0052Z" fill="#4F7FEA"/>
</svg>
